<?xml version="1.0" standalone="no"?>
<!DOCTYPE svg PUBLIC "-//W3C//DTD SVG 20010904//EN"
 "http://www.w3.org/TR/2001/REC-SVG-20010904/DTD/svg10.dtd">
<svg version="1.0" xmlns="http://www.w3.org/2000/svg"
 width="546.000000pt" height="100.000000pt" viewBox="0 0 546.000000 100.000000"
 preserveAspectRatio="xMidYMid meet">

<g transform="translate(0.000000,100.000000) scale(0.100000,-0.100000)"
fill="#000000" stroke="none">
<path d="M490 610 l0 -360 65 0 65 0 0 179 c0 99 3 187 6 196 8 21 45 35 72
28 35 -9 42 -46 42 -228 l0 -175 66 0 65 0 -3 208 c-3 225 -9 253 -64 288 -38
25 -106 24 -143 -3 -16 -13 -33 -23 -36 -23 -3 0 -5 56 -5 125 l0 125 -65 0
-65 0 0 -360z"/>
<path d="M1210 610 l0 -360 65 0 65 0 0 360 0 360 -65 0 -65 0 0 -360z"/>
<path d="M3410 615 l0 -355 60 0 60 0 0 355 0 355 -60 0 -60 0 0 -355z"/>
<path d="M3640 615 l0 -355 65 0 65 0 0 190 c0 177 1 190 19 200 30 16 56 12
77 -11 17 -19 19 -41 22 -200 l3 -179 60 0 59 0 0 193 c0 180 -1 196 -22 237
-13 25 -34 51 -48 57 -37 19 -101 16 -137 -7 l-32 -19 -3 122 -3 122 -62 3
-63 3 0 -356z"/>
<path d="M4810 845 c0 -69 -3 -125 -6 -125 -3 0 -17 9 -31 20 -34 26 -107 27
-149 1 -40 -24 -62 -72 -74 -162 -19 -141 16 -281 80 -314 47 -24 113 -20 150
11 31 27 31 27 37 5 5 -18 13 -21 59 -21 l54 0 0 355 0 355 -60 0 -60 0 0
-125z m-22 -205 c20 -19 22 -30 22 -135 0 -102 -2 -117 -20 -135 -37 -37 -91
-21 -109 31 -14 40 -14 169 -1 206 21 54 69 69 108 33z"/>
<path d="M1010 953 c-41 -15 -55 -87 -22 -116 25 -23 78 -21 102 3 52 52 -10
138 -80 113z"/>
<path d="M1485 948 c-28 -16 -35 -28 -35 -64 0 -40 27 -64 73 -64 64 0 89 69
42 115 -26 27 -49 31 -80 13z"/>
<path d="M2550 931 c-80 -25 -132 -76 -156 -157 -20 -68 -19 -308 2 -371 38
-113 106 -157 234 -151 68 3 84 7 121 33 49 35 76 82 85 148 l7 47 -65 0 -65
0 -6 -41 c-8 -57 -34 -82 -91 -83 -37 -1 -51 4 -73 27 -28 27 -28 28 -31 183
-4 176 8 232 54 253 75 34 144 -9 144 -89 l0 -30 66 0 67 0 -6 45 c-8 58 -38
116 -76 148 -45 38 -149 56 -211 38z"/>
<path d="M50 590 l0 -340 65 0 65 0 0 140 0 140 110 0 110 0 0 55 0 54 -107 3
-108 3 0 85 0 85 118 3 117 3 0 54 0 55 -185 0 -185 0 0 -340z"/>
<path d="M1874 756 c-18 -8 -35 -19 -38 -25 -11 -18 -26 -13 -26 9 0 18 -7 20
-60 20 l-60 0 0 -350 0 -350 65 0 65 0 0 115 0 116 21 -19 c27 -26 73 -34 119
-22 74 20 110 90 118 225 8 165 -31 261 -116 285 -46 12 -50 12 -88 -4z m30
-108 c32 -14 46 -60 45 -148 0 -86 -17 -132 -51 -144 -20 -7 -33 -5 -53 8
l-26 17 3 127 c3 124 4 127 28 139 30 15 24 15 54 1z"/>
<path d="M970 505 l0 -255 65 0 65 0 0 255 0 255 -65 0 -65 0 0 -255z"/>
<path d="M1450 505 l0 -255 65 0 65 0 0 255 0 255 -65 0 -65 0 0 -255z"/>
<path d="M3025 744 c-16 -8 -38 -23 -49 -32 -73 -65 -87 -289 -23 -383 39 -57
71 -73 150 -77 96 -4 140 20 180 97 24 49 27 65 27 157 0 92 -3 107 -28 155
-21 42 -38 59 -72 77 -53 26 -140 30 -185 6z m139 -117 c30 -40 35 -177 9
-226 -23 -44 -43 -56 -77 -47 -18 4 -32 18 -42 41 -16 40 -19 171 -4 212 23
59 77 69 114 20z"/>
<path d="M4193 740 c-46 -24 -70 -54 -80 -100 l-5 -30 60 0 c52 0 62 3 67 21
9 29 47 44 74 30 16 -9 21 -21 21 -55 l0 -43 -62 -7 c-103 -10 -157 -57 -165
-143 -10 -98 46 -163 138 -163 32 0 55 7 73 21 23 18 27 18 32 5 5 -12 21 -16
69 -16 l64 0 -10 32 c-5 18 -9 105 -9 193 0 176 -8 209 -63 249 -42 31 -149
34 -204 6z m137 -318 c0 -54 -2 -60 -26 -71 -34 -15 -63 -5 -75 26 -19 51 15
103 68 103 l33 0 0 -58z"/>
<path d="M5140 749 c-35 -14 -69 -48 -93 -94 -18 -34 -22 -57 -22 -150 0 -118
14 -163 67 -212 54 -50 163 -59 232 -19 65 38 90 92 94 208 6 146 -29 229
-114 264 -38 16 -127 17 -164 3z m134 -122 c18 -24 21 -43 21 -121 0 -122 -27
-168 -90 -152 -39 10 -55 54 -55 151 0 86 14 137 42 149 28 11 62 0 82 -27z"/>
</g>
</svg>
